<svg width="12" height="6" viewBox="0 0 12 6" fill="none" xmlns="http://www.w3.org/2000/svg">
<path d="M10.5 3C10.5 3.10075 10.4404 3.31066 10.2338 3.60001C10.0359 3.87706 9.7336 4.18298 9.33438 4.46813C8.53744 5.03738 7.3878 5.5 6 5.5C4.6122 5.5 3.46256 5.03738 2.66562 4.46813C2.2664 4.18298 1.96414 3.87706 1.76624 3.60001C1.55957 3.31066 1.5 3.10075 1.5 3C1.5 2.89925 1.55957 2.68934 1.76624 2.39999C1.96414 2.12294 2.2664 1.81702 2.66562 1.53187C3.46256 0.962622 4.6122 0.5 6 0.5C7.3878 0.5 8.53744 0.962622 9.33438 1.53187C9.7336 1.81702 10.0359 2.12294 10.2338 2.39999C10.4404 2.68934 10.5 2.89925 10.5 3Z" stroke="#858585"/>
<rect x="5" y="2" width="2" height="2" rx="1" fill="#858585"/>
</svg>
