<svg width="59" height="72" viewBox="0 0 59 72" fill="none" xmlns="http://www.w3.org/2000/svg">
<path fill-rule="evenodd" clip-rule="evenodd" d="M24.0257 0.0385766C22.8113 0.278594 22.3074 0.451441 21.6334 0.859162C20.2895 1.67218 19.2988 2.92305 18.8576 4.3641L18.6551 5.02551L18.5926 10.0596C18.5583 12.8283 18.5281 20.9305 18.5254 28.0645L18.5206 41.0354L15.1217 39.4035C10.9337 37.3928 8.76093 36.4207 8.11532 36.2686C7.29482 36.0753 5.94483 35.9843 5.21014 36.0726C3.49069 36.2794 1.94233 37.2253 0.946319 38.6774C0.1085 39.8988 -0.175684 41.3134 0.104475 42.8679C0.298589 43.9452 0.715524 44.5726 2.42678 46.3626C4.76192 48.8053 20.4987 63.9771 22.8486 66.0515C24.8018 67.7755 25.7767 68.44 27.8229 69.4415C31.0325 71.0126 34.4096 71.8574 37.9995 71.987C42.8039 72.1605 47.6366 70.5924 51.4416 67.6252C52.3975 66.8798 54.0092 65.2756 54.7161 64.3658C56.2161 62.4352 57.0578 60.867 57.9349 58.3689C58.4108 57.0136 58.5718 56.351 58.6917 55.2557C58.8454 53.8514 58.931 46.2166 58.9042 36.2923L58.8771 26.1905L58.7105 25.6026C58.4906 24.8262 57.9587 23.8011 57.4829 23.2365C56.0441 21.5292 53.5319 20.6512 51.4999 21.1457C51.156 21.2294 50.5422 21.4302 50.136 21.5921C49.2805 21.933 49.2946 21.9369 48.8879 21.2381C48.0191 19.7449 46.7218 18.7318 45.0586 18.2473C44.4702 18.0759 44.2461 18.0493 43.3915 18.0499C42.244 18.0507 41.6463 18.1777 40.6101 18.6409L39.9569 18.933L39.787 18.5933C39.1374 17.2945 37.7122 15.9545 36.4541 15.4598C35.5376 15.0994 34.1172 14.964 33.0355 15.1339C32.7697 15.1755 32.2365 15.3076 31.8505 15.4272C31.4645 15.5469 31.1266 15.6448 31.0997 15.6448C31.0726 15.6448 31.0495 13.9169 31.0482 11.8049C31.0452 7.05162 30.9681 5.1661 30.7456 4.40371C30.481 3.49766 29.9702 2.6335 29.2852 1.93329C28.3107 0.936987 27.2763 0.371411 25.9465 0.107584C25.4112 0.00139102 24.3978 -0.0349866 24.0257 0.0385766ZM25.9104 3.22185C26.4201 3.41146 27.1881 4.06228 27.544 4.6061L27.7704 4.95202L27.8206 15.5713C27.8789 27.9219 27.9727 34.7402 28.0899 35.1365C28.206 35.5292 28.9685 36.0015 29.486 36.0013C29.7924 36.0013 30.5791 35.5826 30.7007 35.3551C30.9672 34.8563 30.9919 34.281 31.0483 27.2561C31.0906 21.9956 31.1273 20.2401 31.1999 20.0174C31.4363 19.2925 32.0963 18.6083 32.9165 18.238C33.3085 18.061 33.4603 18.0346 34.0883 18.0339C34.7404 18.0333 34.8582 18.0554 35.3128 18.2638C36.1024 18.6258 36.748 19.2912 36.9894 19.9919C37.0477 20.161 37.0916 22.3744 37.1299 27.0724C37.1858 33.9256 37.2216 34.7907 37.4706 35.2984C37.6394 35.6427 38.2582 35.9589 38.7589 35.9567C39.1658 35.955 39.6423 35.7608 39.89 35.4958C40.2382 35.1232 40.2554 34.8749 40.3201 29.3138C40.3537 26.4239 40.4036 23.8191 40.431 23.5255C40.5502 22.2482 41.4992 21.2999 42.8891 21.0693C44.152 20.8597 45.3338 21.407 46.1111 22.5614L46.3775 22.957L46.4626 28.5789C46.5093 31.671 46.5812 34.4134 46.6221 34.6731C46.7204 35.2958 46.8879 35.5608 47.3127 35.7656C47.8965 36.047 48.1492 36.0525 48.6894 35.795C49.2146 35.5448 49.3861 35.3321 49.5116 34.7752C49.558 34.5693 49.6131 32.7013 49.6434 30.3059L49.6955 26.1905L49.9363 25.6981C50.2318 25.0938 50.7389 24.5893 51.3128 24.329C51.7121 24.148 51.8214 24.1328 52.7327 24.1328C53.6272 24.1328 53.7519 24.1493 54.0594 24.3079C54.6135 24.5937 54.8129 24.7653 55.265 25.3454L55.6945 25.8966L55.7206 38.941C55.7491 53.1941 55.7213 54.6432 55.3926 56.0273C54.624 59.2627 53.0037 62.0419 50.5402 64.35C47.9428 66.7838 44.5946 68.381 41.1834 68.8137C40.0467 68.9579 37.4701 68.9596 36.2143 68.817C32.5265 68.3982 29.2316 67.1156 26.2034 64.9202C24.9445 64.0074 23.6369 62.7813 14.6829 54.1175C6.1732 45.8835 4.48055 44.1981 3.69915 43.181C3.14309 42.4573 3.05887 42.1763 3.16944 41.4149C3.30865 40.456 3.82879 39.7056 4.63228 39.3048C5.27394 38.9846 6.62917 38.9524 7.50777 39.2366C7.97164 39.3865 8.67959 39.7117 14.3428 42.3758C20.4889 45.267 20.2332 45.1756 20.9194 44.7283C21.5201 44.3367 21.5753 44.1841 21.6416 42.7336C21.6732 42.0421 21.7191 33.5891 21.7436 23.9491C21.7682 14.3091 21.8165 6.07457 21.851 5.65017C21.9195 4.8085 22.0488 4.47103 22.4883 3.98622C22.8011 3.64111 23.3981 3.27006 23.8795 3.12161C24.3984 2.96155 25.3349 3.00778 25.9104 3.22185Z" fill="white"/>
</svg>
