<svg width="31" height="72" viewBox="0 0 31 72" fill="none" xmlns="http://www.w3.org/2000/svg">
<path fill-rule="evenodd" clip-rule="evenodd" d="M27.5625 0.65181L29.4374 1.34818L19.6874 27.5982L17.8125 26.9018L27.5625 0.65181ZM11.3125 44.4018L13.1874 45.0982L3.43735 71.3482L1.5625 70.6518L11.3125 44.4018Z" fill="black"/>
<path d="M22.4687 39H20.7607V32.238H22.5387V36.326L25.3247 32.238H27.1167V39H25.3387V34.758L22.4687 39Z" fill="#012D6D"/>
<path d="M22.4687 39H20.7607V32.238H22.5387V36.326L25.3247 32.238H27.1167V39H25.3387V34.758L22.4687 39Z" fill="#00193E"/>
<path d="M22.4687 39H20.7607V32.238H22.5387V36.326L25.3247 32.238H27.1167V39H25.3387V34.758L22.4687 39Z" fill="black"/>
<path d="M12.0098 39.168V37.712C12.2898 37.712 12.5138 37.5487 12.6818 37.222C12.8498 36.886 12.9851 36.3167 13.0878 35.514L13.5218 32.238H18.9958V39H17.2178V33.792H15.0758L14.8518 35.724C14.7118 36.9093 14.4131 37.782 13.9558 38.342C13.5078 38.8927 12.8591 39.168 12.0098 39.168Z" fill="#012D6D"/>
<path d="M12.0098 39.168V37.712C12.2898 37.712 12.5138 37.5487 12.6818 37.222C12.8498 36.886 12.9851 36.3167 13.0878 35.514L13.5218 32.238H18.9958V39H17.2178V33.792H15.0758L14.8518 35.724C14.7118 36.9093 14.4131 37.782 13.9558 38.342C13.5078 38.8927 12.8591 39.168 12.0098 39.168Z" fill="#00193E"/>
<path d="M12.0098 39.168V37.712C12.2898 37.712 12.5138 37.5487 12.6818 37.222C12.8498 36.886 12.9851 36.3167 13.0878 35.514L13.5218 32.238H18.9958V39H17.2178V33.792H15.0758L14.8518 35.724C14.7118 36.9093 14.4131 37.782 13.9558 38.342C13.5078 38.8927 12.8591 39.168 12.0098 39.168Z" fill="black"/>
<path d="M6.22655 39H4.51855V32.238H6.29655V36.326L9.08256 32.238H10.8746V39H9.09655V34.758L6.22655 39Z" fill="#012D6D"/>
<path d="M6.22655 39H4.51855V32.238H6.29655V36.326L9.08256 32.238H10.8746V39H9.09655V34.758L6.22655 39Z" fill="#00193E"/>
<path d="M6.22655 39H4.51855V32.238H6.29655V36.326L9.08256 32.238H10.8746V39H9.09655V34.758L6.22655 39Z" fill="black"/>
</svg>
